# xmcd CD database file
#
# Track frame offsets:
#	150
#	46358
#	91671
#	124927
#	157042
#	181551
#	229610
#	266320
#	287558
#
# Disc length: 4340 seconds
#
# Revision: 1
# Processed by: cddbd v1.5.2PL0 Copyright (c) Steve Scherf et al.
# Submitted via: CDex 1.70beta3
#
DISCID=6910f209
DTITLE=Higuchi Keiko and Kanda Shin-ichiro - 種子の破片
DYEAR=2009
DGENRE=Jazz
TTITLE0=盈虚
TTITLE1=バルバラ・ソング
TTITLE2=ラブレター
TTITLE3=パースペクティヴ
TTITLE4=美貌の青空
TTITLE5=マイ・ファニー・ヴァレンタイン
TTITLE6=死んだ男の残したものは ～ 見えない子ども
TTITLE7=ぼくは素敵な小鳥になって: ゲーテ『ファウスト』より
TTITLE8=アイ・ラヴ・ユー、ポーギー
EXTD=YEAR: 2009
EXTT0=
EXTT1=
EXTT2=
EXTT3=
EXTT4=
EXTT5=
EXTT6=
EXTT7=
EXTT8=
PLAYORDER=
